<?xml version="1.0" encoding="utf-8"?>
<svg viewBox="93.60002136230469 63.000003814697266 194.2000274658203 137.5" width="194.2000274658203" height="137.5" xmlns="http://www.w3.org/2000/svg"><g transform="matrix(1, 0, 0, 1, 0, 5.684341886080802e-14)">
		<g>
			<path d="M 262.29998779296875 106 L 271.70001220703125 102.4000015258789 L 273.8999938964844 106.80000305175781 L 266.3999938964844 111.30000305175781 Z" class="st16" style="fill: rgb(239, 65, 48);"/>
			<path d="M 119.19999694824219 106 L 109.69999694824219 102.4000015258789 L 107.5999984741211 106.80000305175781 L 115.0999984741211 111.30000305175781 Z" class="st16" style="fill: rgb(239, 65, 48);"/>
			<path class="st10" d="M255.6,196.6c0,2.1,1.7,3.9,3.9,3.9l17.3,0c2.1,0,3.9-1.7,3.9-3.9v-35.7h-25V196.6z" style="fill: rgb(88, 89, 91);"/>
			<path class="st10" d="M125.9,196.6c0,2.1-1.7,3.9-3.9,3.9l-17.3,0c-2.1,0-3.9-1.7-3.9-3.9v-35.7h25V196.6z" style="fill: rgb(88, 89, 91);"/>
			<path class="st17" d="M190.7,186c0,0-52.8,0-69.6,0c-13.5,0-16.8-3.8-19.6-10.2c-3.9-8.9-2.7-33.5-1.5-42&#10;&#9;&#9;&#9;&#9;c1.2-8.5,11.7-20,16.8-29.1c2-10.3,16.2-34.2,24.5-38.4c5.4-2.7,36.3-3.3,49.4-3.3c13.1,0,44,0.6,49.4,3.3&#10;&#9;&#9;&#9;&#9;c8.3,4.2,22.5,28.1,24.5,38.4c5,9.1,15.6,20.6,16.8,29.1c1.2,8.5,2.4,33.1-1.5,42c-2.8,6.4-6.2,10.2-19.6,10.2&#10;&#9;&#9;&#9;&#9;C243.6,186,190.7,186,190.7,186z" style="fill: rgb(225, 27, 34);"/>
			<path class="st18" d="M239.9,173.7c0-4.2,6.4-10.6,18.4-10.4c8.6,0.1,11.7,3.2,10.4,6.9C266.4,177.3,239.9,178.8,239.9,173.7z" style="fill: rgb(206, 24, 30);"/>
			<path class="st12" d="M242.6,173.1c0.8,0.4,2.8,0.9,6.7,0.9c8.5,0,16.2-2.6,17-4.7c0.3-0.8,0-1.2-0.1-1.3c-0.7-1-3.1-2-7.9-2.1&#10;&#9;&#9;&#9;&#9;l-0.5,0C247.9,165.9,243.2,170.7,242.6,173.1z" style="fill: rgb(65, 64, 66);"/>
			<path d="M 235.5 136.5 L 253 104.4000015258789 L 259.6000061035156 102 L 236.6999969482422 137.60000610351562 Z" class="st16" style="fill: rgb(239, 65, 48);"/>
			<path class="st13" d="M272,127.6c-1.3-0.8-4.7-1.3-7.6-1l-1.5,0.1c-2.9,0.3-7.3,1.6-9.9,3l-3.6,1.9c-2.5,1.4-5.7,4.6-7.1,7.2&#10;&#9;&#9;&#9;&#9;l-1.2,2.4c-1.3,2.6,0,4.7,2.9,4.7h3.8c2.9,0,7.5-0.9,10.2-2l10.6-4.2c2.7-1.1,5.1-3.9,5.3-6.3C274.1,131.1,273.2,128.5,272,127.6&#10;&#9;&#9;&#9;&#9;z" style="fill: rgb(230, 231, 232);"/>
			<path class="st18" d="M190.7,172.8c0,0-29.4,0-35.7,0c-4,0-6.7-2.3-6.7-4.8c0-2.5,1.9-3.1,5.4-3.1c3.5,0,37,0,37,0s33.6,0,37,0&#10;&#9;&#9;&#9;&#9;c3.5,0,5.4,0.6,5.4,3.1c0,2.5-2.7,4.8-6.7,4.8C220.1,172.8,190.7,172.8,190.7,172.8z" style="fill: rgb(206, 24, 30);"/>
			<path class="st12" d="M190.7,150.2c0,0-24.1,0-30.5,0c-8.7,0-12-4.9-12-9.2c0-3.4,1.2-4.5,8.9-4.5c3.5,0,33.5,0,33.5,0&#10;&#9;&#9;&#9;&#9;s30,0,33.5,0c7.7,0,8.9,1.1,8.9,4.5c0,4.3-3.3,9.2-12,9.2C214.8,150.2,190.7,150.2,190.7,150.2z" style="fill: rgb(65, 64, 66);"/>
			<path class="st18" d="M190.7,180.7c0,0-30.3,0-32.7,0c-3.5,0-4.8-2-4.8-3.8c0-0.8,1.9-1.3,4.9-1.3c2.4,0,32.6,0,32.6,0&#10;&#9;&#9;&#9;&#9;s30.2,0,32.6,0c3,0,4.9,0.5,4.9,1.3c0,1.8-1.2,3.8-4.8,3.8C221,180.7,190.7,180.7,190.7,180.7z" style="fill: rgb(206, 24, 30);"/>
			<path class="st18" d="M141.6,173.7c0-4.2-6.4-10.6-18.4-10.4c-8.6,0.1-11.7,3.2-10.4,6.9C115.1,177.3,141.6,178.8,141.6,173.7z" style="fill: rgb(206, 24, 30);"/>
			<path class="st12" d="M138.9,173.1c-0.8,0.4-2.8,0.9-6.7,0.9c-8.5,0-16.2-2.6-17-4.7c-0.3-0.8,0-1.2,0.1-1.3c0.7-1,3.1-2,7.9-2.1&#10;&#9;&#9;&#9;&#9;l0.5,0C133.6,165.9,138.2,170.7,138.9,173.1z" style="fill: rgb(65, 64, 66);"/>
			<path class="st13" d="M190.7,146.5c-11.2,0-34.2-0.4-34.2-3c0-2.6,22.9-2.8,34.2-2.8c11.3,0,34.2,0.2,34.2,2.8&#10;&#9;&#9;&#9;&#9;C224.9,146.1,201.9,146.5,190.7,146.5z" style="fill: rgb(230, 231, 232);"/>
			<path class="st12" d="M190.7,103.1c0,0-64.6,1.2-66-2.2c-1.5-3.4,13.4-25.7,18.4-29c5-3.2,32.6-4,47.7-4c15.1,0,42.7,0.8,47.7,4&#10;&#9;&#9;&#9;&#9;c5,3.2,19.8,25.6,18.4,29C255.3,104.3,190.7,103.1,190.7,103.1z" style="fill: rgb(65, 64, 66);"/>
			<path d="M 146 136.5 L 128.5 104.4000015258789 L 121.9000015258789 102 L 144.8000030517578 137.60000610351562 Z" class="st16" style="fill: rgb(239, 65, 48);"/>
			<path class="st13" d="M109.5,127.6c1.3-0.8,4.7-1.3,7.6-1l1.5,0.1c2.9,0.3,7.3,1.6,9.9,3l3.6,1.9c2.6,1.4,5.7,4.6,7.1,7.2&#10;&#9;&#9;&#9;&#9;l1.2,2.4c1.3,2.6,0,4.7-2.9,4.7h-3.8c-2.9,0-7.5-0.9-10.2-2l-10.6-4.2c-2.7-1.1-5.1-3.9-5.3-6.3&#10;&#9;&#9;&#9;&#9;C107.4,131.1,108.2,128.5,109.5,127.6z" style="fill: rgb(230, 231, 232);"/>
			<path class="st17" d="M287.8,102.1c0,5-5.5,7.4-10.3,7.4c-5.8,0-8.9-3.3-8.9-7.4c0-4.1,3.2-7.4,8.9-7.4&#10;&#9;&#9;&#9;&#9;C282.3,94.7,287.8,97.1,287.8,102.1z" style="fill: rgb(225, 27, 34);"/>
			<path class="st17" d="M93.6,102.1c0,5,5.5,7.4,10.3,7.4c5.8,0,8.9-3.3,8.9-7.4c0-4.1-3.2-7.4-8.9-7.4&#10;&#9;&#9;&#9;&#9;C99.1,94.7,93.6,97.1,93.6,102.1z" style="fill: rgb(225, 27, 34);"/>
		</g>
	</g></svg>